# This file uses centimeters as units for non-parametric coordinates.

mtllib Plate.mtl
g default
v 1.319075 -0.325990 -1.180098
v 0.608376 -0.325990 -1.890796
v -0.362457 -0.325990 -2.150931
v -1.333290 -0.325990 -1.890796
v -2.043990 -0.325990 -1.180098
v -2.304124 -0.325990 -0.209265
v -2.043990 -0.325990 0.761568
v -1.333290 -0.325990 1.472267
v -0.362457 -0.325990 1.732401
v 0.608376 -0.325990 1.472267
v 1.319075 -0.325990 0.761568
v 1.579208 -0.325990 -0.209265
v 1.319075 -0.288941 -1.180098
v 0.608376 -0.288941 -1.890796
v -0.362457 -0.288941 -2.150931
v -1.333290 -0.288941 -1.890796
v -2.043990 -0.288941 -1.180098
v -2.304124 -0.288941 -0.209265
v -2.043990 -0.288941 0.761568
v -1.333290 -0.288941 1.472267
v -0.362457 -0.288941 1.732401
v 0.608376 -0.288941 1.472267
v 1.319075 -0.288941 0.761568
v 1.579208 -0.288941 -0.209265
v 0.987175 -0.325990 -0.988475
v 0.416753 -0.325990 -1.558897
v -0.362457 -0.325990 -1.767685
v -1.141668 -0.325990 -1.558897
v -1.712089 -0.325990 -0.988475
v -1.920878 -0.325990 -0.209265
v -1.712089 -0.325990 0.569946
v -1.141668 -0.325990 1.140367
v -0.362457 -0.325990 1.349156
v 0.416753 -0.325990 1.140367
v 0.987175 -0.325990 0.569946
v 1.195963 -0.325990 -0.209265
v 0.851358 -0.246280 -0.910061
v 0.338340 -0.246280 -1.423080
v -0.362457 -0.246280 -0.209265
v -0.362457 -0.246280 -1.610858
v -1.063254 -0.246280 -1.423080
v -1.576273 -0.246280 -0.910061
v -1.764051 -0.246280 -0.209265
v -1.576273 -0.246280 0.491532
v -1.063254 -0.246280 1.004551
v -0.362457 -0.246280 1.192329
v 0.338340 -0.246280 1.004551
v 0.851358 -0.246280 0.491532
v 1.039136 -0.246280 -0.209265
v 1.043272 -0.235687 -1.020863
v 0.449141 -0.235687 -1.614994
v -0.362457 -0.235687 -1.832461
v -1.174056 -0.235687 -1.614994
v -1.768187 -0.235687 -1.020863
v -1.985654 -0.235687 -0.209265
v -1.768187 -0.235687 0.602334
v -1.174056 -0.235687 1.196464
v -0.362457 -0.235687 1.413932
v 0.449141 -0.235687 1.196464
v 1.043272 -0.235687 0.602334
v 1.260739 -0.235687 -0.209265
v 0.848641 -0.084164 -0.908492
v 0.336771 -0.084164 -1.420362
v -0.362457 -0.080942 -0.209265
v -0.362457 -0.084164 -1.607720
v -1.061685 -0.084164 -1.420362
v -1.573555 -0.084164 -0.908492
v -1.760913 -0.084164 -0.209265
v -1.573555 -0.084164 0.489963
v -1.061685 -0.084164 1.001833
v -0.362457 -0.084164 1.189191
v 0.336771 -0.084164 1.001833
v 0.848641 -0.084164 0.489963
v 1.035998 -0.084164 -0.209265
vt 0.399071 0.840727
vt 0.399071 0.716682
vt 0.403804 0.716682
vt 0.403804 0.840727
vt 0.399071 0.592638
vt 0.403804 0.592638
vt 0.399071 0.931533
vt 0.403804 0.931533
vt 0.399071 0.501832
vt 0.403804 0.501832
vt 0.409435 0.840727
vt 0.409435 0.716682
vt 0.414169 0.716682
vt 0.414169 0.840727
vt 0.409435 0.592638
vt 0.414169 0.592638
vt 0.409435 0.931533
vt 0.414169 0.931533
vt 0.409435 0.501832
vt 0.414169 0.501832
vt 0.339458 0.094990
vt 0.405007 0.160539
vt 0.249917 0.250080
vt 0.349477 0.077637
vt 0.422360 0.150520
vt 0.428999 0.250080
vt 0.249917 0.070998
vt 0.373961 0.035230
vt 0.464767 0.126036
vt 0.449037 0.250080
vt 0.249917 0.050960
vt 0.405007 0.339622
vt 0.160375 0.094990
vt 0.498005 0.250080
vt 0.249917 0.001992
vt 0.422360 0.349641
vt 0.150356 0.077637
vt 0.339458 0.405170
vt 0.094826 0.160539
vt 0.464767 0.374124
vt 0.125872 0.035230
vt 0.349477 0.422524
vt 0.077473 0.150520
vt 0.249917 0.429163
vt 0.070834 0.250080
vt 0.373961 0.464931
vt 0.035066 0.126036
vt 0.249917 0.449201
vt 0.050796 0.250080
vt 0.160375 0.405170
vt 0.094826 0.339622
vt 0.249917 0.498168
vt 0.001828 0.250080
vt 0.150356 0.422524
vt 0.077473 0.349641
vt 0.125872 0.464931
vt 0.035066 0.374124
vt 0.757229 0.595177
vt 0.822631 0.660579
vt 0.667888 0.749920
vt 0.771587 0.570309
vt 0.847499 0.646221
vt 0.846570 0.749920
vt 0.667888 0.571238
vt 0.791932 0.535069
vt 0.882739 0.625876
vt 0.875285 0.749920
vt 0.667888 0.542523
vt 0.822631 0.839261
vt 0.578547 0.595177
vt 0.915976 0.749920
vt 0.667888 0.501832
vt 0.847499 0.853619
vt 0.564189 0.570309
vt 0.757229 0.904663
vt 0.513145 0.660579
vt 0.882739 0.873964
vt 0.543844 0.535069
vt 0.771587 0.929531
vt 0.488277 0.646221
vt 0.667888 0.928602
vt 0.489206 0.749920
vt 0.791932 0.964771
vt 0.453037 0.625876
vt 0.667888 0.957317
vt 0.460491 0.749920
vt 0.578547 0.904663
vt 0.513145 0.839261
vt 0.667888 0.998008
vt 0.419800 0.749920
vt 0.564189 0.929531
vt 0.488277 0.853619
vt 0.543844 0.964771
vt 0.453037 0.873964
vt 0.393440 0.501832
vt 0.393440 0.625876
vt 0.388706 0.625876
vt 0.388706 0.501832
vt 0.393440 0.749920
vt 0.388706 0.749920
vt 0.378341 0.749920
vt 0.378341 0.625876
vt 0.383075 0.625876
vt 0.383075 0.749920
vt 0.378341 0.501832
vt 0.383075 0.501832
vn 0.707107 0.000000 -0.707107
vn 0.707107 0.000000 -0.707107
vn 0.707107 0.000000 -0.707107
vn 0.707107 0.000000 -0.707107
vn 0.258820 0.000000 -0.965926
vn 0.258820 0.000000 -0.965926
vn 0.258820 0.000000 -0.965926
vn 0.258820 0.000000 -0.965926
vn -0.258819 0.000000 -0.965926
vn -0.258819 0.000000 -0.965926
vn -0.258819 0.000000 -0.965926
vn -0.258819 0.000000 -0.965926
vn -0.707106 0.000000 -0.707107
vn -0.707106 0.000000 -0.707107
vn -0.707106 0.000000 -0.707107
vn -0.707106 0.000000 -0.707107
vn -0.965926 0.000000 -0.258819
vn -0.965926 0.000000 -0.258819
vn -0.965926 0.000000 -0.258819
vn -0.965926 0.000000 -0.258819
vn -0.965926 0.000000 0.258819
vn -0.965926 0.000000 0.258819
vn -0.965926 0.000000 0.258819
vn -0.965926 0.000000 0.258819
vn -0.707106 0.000000 0.707107
vn -0.707106 0.000000 0.707107
vn -0.707106 0.000000 0.707107
vn -0.707106 0.000000 0.707107
vn -0.258818 0.000000 0.965926
vn -0.258818 0.000000 0.965926
vn -0.258818 0.000000 0.965926
vn -0.258818 0.000000 0.965926
vn 0.258819 0.000000 0.965926
vn 0.258819 0.000000 0.965926
vn 0.258819 0.000000 0.965926
vn 0.258819 0.000000 0.965926
vn 0.707107 0.000000 0.707107
vn 0.707107 0.000000 0.707107
vn 0.707107 0.000000 0.707107
vn 0.707107 0.000000 0.707107
vn 0.965926 0.000000 0.258819
vn 0.965926 0.000000 0.258819
vn 0.965926 0.000000 0.258819
vn 0.965926 0.000000 0.258819
vn 0.965926 0.000000 -0.258819
vn 0.965926 0.000000 -0.258819
vn 0.965926 0.000000 -0.258819
vn 0.965926 0.000000 -0.258819
vn 0.000000 -1.000000 -0.000000
vn 0.000000 -1.000000 -0.000000
vn 0.000000 -1.000000 -0.000000
vn 0.000000 -1.000000 0.000000
vn 0.000000 -1.000000 0.000000
vn 0.000000 -1.000000 0.000000
vn 0.000000 -1.000000 0.000000
vn 0.000000 -1.000000 0.000000
vn 0.000000 -1.000000 0.000000
vn 0.000000 -1.000000 0.000000
vn 0.000000 -1.000000 0.000000
vn 0.000000 -1.000000 0.000000
vn 0.000000 -1.000000 0.000000
vn 0.001995 0.999997 -0.001152
vn 0.001152 0.999997 -0.001996
vn 0.000000 1.000000 -0.000000
vn 0.000000 0.999997 -0.002304
vn -0.001152 0.999997 -0.001995
vn -0.001995 0.999997 -0.001152
vn -0.002304 0.999997 0.000000
vn -0.001995 0.999997 0.001152
vn -0.001152 0.999997 0.001995
vn -0.000000 0.999997 0.002304
vn 0.001152 0.999997 0.001996
vn 0.001995 0.999997 0.001152
vn 0.002304 0.999997 0.000000
vn 0.000000 -1.000000 0.000000
vn 0.000000 -1.000000 0.000000
vn 0.000000 -1.000000 0.000000
vn 0.000000 -1.000000 0.000000
vn 0.000000 -1.000000 -0.000000
vn 0.000000 -1.000000 -0.000000
vn 0.000000 -1.000000 -0.000000
vn 0.000000 -1.000000 -0.000000
vn 0.000000 -1.000000 0.000000
vn 0.000000 -1.000000 0.000000
vn 0.000000 -1.000000 0.000000
vn 0.000000 -1.000000 0.000000
vn 0.000000 -1.000000 0.000000
vn 0.000000 -1.000000 0.000000
vn 0.000000 -1.000000 0.000000
vn 0.000000 -1.000000 0.000000
vn 0.000000 -1.000000 -0.000000
vn 0.000000 -1.000000 -0.000000
vn 0.000000 -1.000000 -0.000000
vn 0.000000 -1.000000 -0.000000
vn 0.000000 -1.000000 0.000000
vn 0.000000 -1.000000 0.000000
vn 0.000000 -1.000000 0.000000
vn 0.000000 -1.000000 0.000000
vn 0.000000 -1.000000 -0.000000
vn 0.000000 -1.000000 -0.000000
vn 0.000000 -1.000000 -0.000000
vn 0.000000 -1.000000 -0.000000
vn 0.000000 -1.000000 -0.000000
vn 0.000000 -1.000000 -0.000000
vn 0.000000 -1.000000 -0.000000
vn 0.000000 -1.000000 -0.000000
vn 0.000000 -1.000000 0.000000
vn 0.000000 -1.000000 0.000000
vn 0.000000 -1.000000 0.000000
vn 0.000000 -1.000000 0.000000
vn 0.000000 -1.000000 -0.000000
vn 0.000000 -1.000000 -0.000000
vn 0.000000 -1.000000 -0.000000
vn 0.000000 -1.000000 -0.000000
vn 0.000000 -1.000000 -0.000000
vn 0.000000 -1.000000 -0.000000
vn 0.000000 -1.000000 -0.000000
vn 0.000000 -1.000000 -0.000000
vn 0.000000 -1.000000 0.000000
vn 0.000000 -1.000000 0.000000
vn 0.000000 -1.000000 0.000000
vn 0.000000 -1.000000 0.000000
vn -0.226551 -0.891459 0.392397
vn -0.392397 -0.891459 0.226551
vn -0.392397 -0.891459 0.226551
vn -0.226551 -0.891459 0.392397
vn -0.000000 -0.891459 0.453102
vn -0.000000 -0.891459 0.453102
vn 0.226551 -0.891459 0.392398
vn 0.226551 -0.891459 0.392398
vn 0.392398 -0.891459 0.226551
vn 0.392398 -0.891459 0.226551
vn 0.453102 -0.891459 0.000000
vn 0.453102 -0.891459 0.000000
vn 0.392397 -0.891459 -0.226551
vn 0.392398 -0.891459 -0.226551
vn 0.226551 -0.891459 -0.392397
vn 0.226551 -0.891459 -0.392397
vn 0.000000 -0.891459 -0.453101
vn 0.000000 -0.891459 -0.453101
vn -0.226551 -0.891459 -0.392397
vn -0.226551 -0.891459 -0.392397
vn -0.392397 -0.891459 -0.226551
vn -0.392397 -0.891459 -0.226551
vn -0.453101 -0.891459 0.000000
vn -0.453101 -0.891459 0.000000
vn 0.120618 0.985344 -0.120618
vn 0.120618 0.985344 -0.120618
vn 0.120618 0.985344 -0.120618
vn 0.120618 0.985344 -0.120618
vn 0.044149 0.985344 -0.164767
vn 0.044149 0.985344 -0.164767
vn 0.044149 0.985344 -0.164767
vn 0.044149 0.985344 -0.164767
vn -0.044149 0.985344 -0.164767
vn -0.044149 0.985344 -0.164767
vn -0.044149 0.985344 -0.164767
vn -0.044149 0.985344 -0.164767
vn -0.120618 0.985344 -0.120618
vn -0.120618 0.985344 -0.120618
vn -0.120618 0.985344 -0.120618
vn -0.120618 0.985344 -0.120618
vn -0.164767 0.985344 -0.044149
vn -0.164767 0.985344 -0.044149
vn -0.164767 0.985344 -0.044149
vn -0.164767 0.985344 -0.044149
vn -0.164767 0.985344 0.044149
vn -0.164767 0.985344 0.044149
vn -0.164767 0.985344 0.044149
vn -0.164767 0.985344 0.044149
vn -0.120618 0.985344 0.120618
vn -0.120618 0.985344 0.120618
vn -0.120618 0.985344 0.120618
vn -0.120618 0.985344 0.120618
vn -0.044149 0.985344 0.164767
vn -0.044149 0.985344 0.164767
vn -0.044149 0.985344 0.164767
vn -0.044149 0.985344 0.164767
vn 0.044149 0.985344 0.164767
vn 0.044149 0.985344 0.164767
vn 0.044149 0.985344 0.164767
vn 0.044149 0.985344 0.164767
vn 0.120618 0.985344 0.120618
vn 0.120618 0.985344 0.120618
vn 0.120618 0.985344 0.120618
vn 0.120618 0.985344 0.120618
vn 0.164768 0.985344 0.044149
vn 0.164768 0.985344 0.044149
vn 0.164768 0.985344 0.044149
vn 0.164768 0.985344 0.044149
vn 0.164768 0.985344 -0.044149
vn 0.164768 0.985344 -0.044149
vn 0.164768 0.985344 -0.044149
vn 0.164768 0.985344 -0.044149
vn 0.484130 0.829151 -0.279512
vn 0.279513 0.829151 -0.484129
vn 0.279512 0.829151 -0.484129
vn 0.484130 0.829151 -0.279512
vn 0.000000 0.829151 -0.559024
vn -0.000000 0.829151 -0.559024
vn -0.279512 0.829151 -0.484129
vn -0.279512 0.829151 -0.484129
vn -0.484129 0.829151 -0.279512
vn -0.484129 0.829151 -0.279513
vn -0.559024 0.829151 -0.000000
vn -0.559024 0.829151 -0.000000
vn -0.484129 0.829151 0.279512
vn -0.484129 0.829151 0.279513
vn -0.279512 0.829151 0.484130
vn -0.279512 0.829151 0.484130
vn 0.000000 0.829151 0.559025
vn -0.000000 0.829151 0.559025
vn 0.279513 0.829151 0.484130
vn 0.279512 0.829151 0.484130
vn 0.484130 0.829151 0.279512
vn 0.484130 0.829151 0.279512
vn 0.559025 0.829151 -0.000000
vn 0.559025 0.829151 -0.000000
s off
g Plate Banh_xeo_plate
usemtl lambert13SG
f 1/15/1 2/19/2 14/20/3 13/16/4
f 2/95/5 3/96/6 15/97/7 14/98/8
f 3/96/9 4/99/10 16/100/11 15/97/12
f 4/7/13 5/1/14 17/4/15 16/8/16
f 5/1/17 6/2/18 18/3/19 17/4/20
f 6/2/21 7/5/22 19/6/23 18/3/24
f 7/5/25 8/9/26 20/10/27 19/6/28
f 8/101/29 9/102/30 21/103/31 20/104/32
f 9/102/33 10/105/34 22/106/35 21/103/36
f 10/17/37 11/11/38 23/14/39 22/18/40
f 11/11/41 12/12/42 24/13/43 23/14/44
f 12/12/45 1/15/46 13/16/47 24/13/48
s 1
f 38/21/49 37/22/50 39/23/51
f 40/27/52 38/21/49 39/23/51
f 41/33/53 40/27/52 39/23/51
f 42/39/54 41/33/53 39/23/51
f 43/45/55 42/39/54 39/23/51
f 44/51/56 43/45/55 39/23/51
f 45/50/57 44/51/56 39/23/51
f 46/44/58 45/50/57 39/23/51
f 47/38/59 46/44/58 39/23/51
f 48/32/60 47/38/59 39/23/51
f 49/26/61 48/32/60 39/23/51
f 37/22/50 49/26/61 39/23/51
s 2
f 62/58/62 63/59/63 64/60/64
f 63/59/63 65/63/65 64/60/64
f 65/63/65 66/69/66 64/60/64
f 66/69/66 67/75/67 64/60/64
f 67/75/67 68/81/68 64/60/64
f 68/81/68 69/87/69 64/60/64
f 69/87/69 70/88/70 64/60/64
f 70/88/70 71/82/71 64/60/64
f 71/82/71 72/76/72 64/60/64
f 72/76/72 73/70/73 64/60/64
f 73/70/73 74/64/74 64/60/64
f 74/64/74 62/58/62 64/60/64
s off
f 2/28/75 1/29/76 25/25/77 26/24/78
f 3/35/79 2/28/80 26/24/81 27/31/82
f 4/41/83 3/35/84 27/31/85 28/37/86
f 5/47/87 4/41/88 28/37/89 29/43/90
f 6/53/91 5/47/92 29/43/93 30/49/94
f 7/57/95 6/53/96 30/49/97 31/55/98
f 8/56/99 7/57/100 31/55/101 32/54/102
f 9/52/103 8/56/104 32/54/105 33/48/106
f 10/46/107 9/52/108 33/48/109 34/42/110
f 11/40/111 10/46/112 34/42/113 35/36/114
f 12/34/115 11/40/116 35/36/117 36/30/118
f 1/29/119 12/34/120 36/30/121 25/25/122
s 3
f 26/24/123 25/25/124 37/22/125 38/21/126
f 27/31/127 26/24/123 38/21/126 40/27/128
f 28/37/129 27/31/127 40/27/128 41/33/130
f 29/43/131 28/37/129 41/33/130 42/39/132
f 30/49/133 29/43/131 42/39/132 43/45/134
f 31/55/135 30/49/133 43/45/134 44/51/136
f 32/54/137 31/55/135 44/51/136 45/50/138
f 33/48/139 32/54/137 45/50/138 46/44/140
f 34/42/141 33/48/139 46/44/140 47/38/142
f 35/36/143 34/42/141 47/38/142 48/32/144
f 36/30/145 35/36/143 48/32/144 49/26/146
f 25/25/124 36/30/145 49/26/146 37/22/125
s off
f 13/65/147 14/66/148 51/62/149 50/61/150
f 14/66/151 15/71/152 52/67/153 51/62/154
f 15/71/155 16/77/156 53/73/157 52/67/158
f 16/77/159 17/83/160 54/79/161 53/73/162
f 17/83/163 18/89/164 55/85/165 54/79/166
f 18/89/167 19/93/168 56/91/169 55/85/170
f 19/93/171 20/94/172 57/92/173 56/91/174
f 20/94/175 21/90/176 58/86/177 57/92/178
f 21/90/179 22/84/180 59/80/181 58/86/182
f 22/84/183 23/78/184 60/74/185 59/80/186
f 23/78/187 24/72/188 61/68/189 60/74/190
f 24/72/191 13/65/192 50/61/193 61/68/194
s 4
f 50/61/195 51/62/196 63/59/197 62/58/198
f 51/62/196 52/67/199 65/63/200 63/59/197
f 52/67/199 53/73/201 66/69/202 65/63/200
f 53/73/201 54/79/203 67/75/204 66/69/202
f 54/79/203 55/85/205 68/81/206 67/75/204
f 55/85/205 56/91/207 69/87/208 68/81/206
f 56/91/207 57/92/209 70/88/210 69/87/208
f 57/92/209 58/86/211 71/82/212 70/88/210
f 58/86/211 59/80/213 72/76/214 71/82/212
f 59/80/213 60/74/215 73/70/216 72/76/214
f 60/74/215 61/68/217 74/64/218 73/70/216
f 61/68/217 50/61/195 62/58/198 74/64/218
