# This file uses centimeters as units for non-parametric coordinates.

mtllib Sprout.mtl
g default
v 1.040415 -0.394189 -0.376302
v 0.224279 -0.415469 0.094894
v 0.695475 -0.394189 -0.721242
v -0.246917 -0.394189 0.911030
v 0.224279 -0.394189 1.037286
v 0.695475 -0.394189 0.911030
v 1.040415 -0.394189 0.566090
v 1.166671 -0.394189 0.094894
v 1.042849 -0.554949 -0.377708
v 0.224931 -0.576229 0.095271
v 0.697533 -0.554949 -0.723300
v -0.247671 -0.554949 0.913841
v 0.224279 -0.554949 1.040098
v 0.696881 -0.554949 0.913465
v 1.042849 -0.554949 0.567496
v 1.169483 -0.554949 0.094894
vt 0.928765 0.002844
vt 0.922316 0.250183
vt 0.873596 0.250069
vt 0.880045 0.001992
vt 0.928765 0.497523
vt 0.880045 0.498146
vt 0.955618 0.749931
vt 0.955618 0.892732
vt 0.906898 0.893158
vt 0.906898 0.749931
vt 0.955618 0.997270
vt 0.906898 0.998008
vt 0.955618 0.607130
vt 0.906898 0.606704
vt 0.955618 0.502592
vt 0.906898 0.501968
vt 0.393014 0.106728
vt 0.145135 0.250069
vt 0.288362 0.001992
vt 0.431392 0.249955
vt 0.393014 0.393182
vt 0.288164 0.498032
vt 0.144937 0.536410
vt 0.001907 0.498146
vt 0.828919 0.430396
vt 0.724381 0.534934
vt 0.581580 0.287595
vt 0.867182 0.287595
vt 0.828919 0.144793
vt 0.724381 0.040256
vt 0.581580 0.001992
vt 0.438778 0.040256
vt 0.901023 0.681983
vt 0.901023 0.824785
vt 0.852303 0.825013
vt 0.852303 0.681983
vt 0.901023 0.539182
vt 0.852303 0.538756
vn 0.019503 -0.999746 -0.011254
vn 0.013015 -0.999887 0.007514
vn 0.016485 -0.999728 -0.016472
vn -0.006023 -0.999728 0.022513
vn 0.000005 -0.999747 0.022517
vn 0.011260 -0.999746 0.019507
vn 0.019508 -0.999746 0.011263
vn 0.022524 -0.999746 -0.000002
vn -0.019551 0.999745 0.011288
vn -0.016526 0.999727 0.016526
vn -0.013036 0.999887 -0.007526
vn 0.006049 0.999727 -0.022575
vn -0.000000 0.999745 -0.022575
vn -0.011288 0.999745 -0.019551
vn -0.019551 0.999745 -0.011288
vn -0.022575 0.999745 -0.000000
vn -0.866016 -0.004685 -0.499995
vn -0.865963 -0.004685 -0.500086
vn -0.865963 -0.004685 -0.500086
vn -0.866016 -0.004685 -0.499995
vn 0.707140 0.017496 -0.706857
vn 0.865988 0.017798 -0.499748
vn 0.865988 0.017798 -0.499748
vn 0.707140 0.017496 -0.706857
vn -0.866069 -0.004685 -0.499903
vn -0.866069 -0.004685 -0.499903
vn 0.000199 0.017798 0.999842
vn -0.258587 0.017495 0.965830
vn -0.258587 0.017495 0.965830
vn 0.000199 0.017798 0.999842
vn 0.499924 0.017485 0.865893
vn 0.499924 0.017485 0.865893
vn 0.865893 0.017484 0.499923
vn 0.865893 0.017484 0.499923
vn 0.999847 0.017484 0.000000
vn 0.999847 0.017484 0.000000
s 1
g Sprouts Banh_xeo_1 Banh_xeo_plate
usemtl lambert15SG
f 9/17/1 10/18/2 11/19/3
f 12/24/4 10/18/2 13/23/5
f 13/23/5 10/18/2 14/22/6
f 14/22/6 10/18/2 15/21/7
f 15/21/7 10/18/2 16/20/8
f 16/20/8 10/18/2 9/17/1
s 3
f 1/25/9 3/26/10 2/27/11
f 4/32/12 5/31/13 2/27/11
f 5/31/13 6/30/14 2/27/11
f 6/30/14 7/29/15 2/27/11
f 7/29/15 8/28/16 2/27/11
f 8/28/16 1/25/9 2/27/11
s 5
f 2/2/17 3/5/18 11/6/19 10/3/20
s 6
f 3/15/21 1/13/22 9/14/23 11/16/24
s 5
f 4/1/25 2/2/17 10/3/20 12/4/26
s 6
f 5/33/27 4/34/28 12/35/29 13/36/30
f 6/37/31 5/33/27 13/36/30 14/38/32
f 7/8/33 6/11/31 14/12/32 15/9/34
f 8/7/35 7/8/33 15/9/34 16/10/36
f 1/13/22 8/7/35 16/10/36 9/14/23
g default
v -0.051565 -0.310745 -0.600137
v -0.866370 -0.354327 -0.128172
v -0.396047 -0.333070 -0.944812
v -1.338439 -0.333070 0.687459
v -0.867701 -0.310745 0.813451
v -0.396840 -0.294401 0.687001
v -0.052024 -0.288419 0.341991
v 0.074356 -0.294401 -0.129135
v -0.042536 -0.471257 -0.597735
v -0.859122 -0.514870 -0.123988
v -0.387393 -0.493614 -0.943062
v -1.332597 -0.493614 0.694078
v -0.861106 -0.471257 0.820070
v -0.388841 -0.454865 0.693243
v -0.042995 -0.448865 0.347203
v 0.083761 -0.454865 -0.125328
vt 0.928765 0.002844
vt 0.922316 0.250183
vt 0.873596 0.250069
vt 0.880045 0.001992
vt 0.928765 0.497522
vt 0.880045 0.498146
vt 0.955618 0.749931
vt 0.955618 0.892732
vt 0.906898 0.893158
vt 0.906898 0.749931
vt 0.955618 0.997270
vt 0.906898 0.998008
vt 0.955618 0.607130
vt 0.906898 0.606704
vt 0.955618 0.502592
vt 0.906898 0.501968
vt 0.393014 0.106728
vt 0.145135 0.250069
vt 0.288362 0.001992
vt 0.431392 0.249955
vt 0.393014 0.393182
vt 0.288164 0.498032
vt 0.144937 0.536410
vt 0.001907 0.498146
vt 0.828919 0.430396
vt 0.724381 0.534934
vt 0.581579 0.287595
vt 0.867182 0.287595
vt 0.828919 0.144793
vt 0.724381 0.040256
vt 0.581579 0.001992
vt 0.438778 0.040256
vt 0.901023 0.681983
vt 0.901023 0.824785
vt 0.852303 0.825013
vt 0.852303 0.681983
vt 0.901023 0.539182
vt 0.852303 0.538756
vn 0.060514 -0.998090 0.012424
vn 0.054029 -0.998052 0.031193
vn 0.057501 -0.998319 0.007208
vn 0.034993 -0.998319 0.046193
vn 0.041016 -0.998090 0.046195
vn 0.052264 -0.997699 0.043180
vn 0.060509 -0.997556 0.034935
vn 0.063527 -0.997699 0.023671
vn -0.060562 0.998088 -0.012390
vn -0.057542 0.998317 -0.007154
vn -0.054049 0.998051 -0.031205
vn -0.034967 0.998318 -0.046255
vn -0.041011 0.998088 -0.046253
vn -0.052291 0.997696 -0.043224
vn -0.060551 0.997553 -0.034959
vn -0.063579 0.997696 -0.023673
vn -0.864851 -0.052059 -0.499322
vn -0.864798 -0.052060 -0.499414
vn -0.864798 -0.052060 -0.499414
vn -0.864851 -0.052059 -0.499322
vn 0.706170 0.029746 -0.707417
vn 0.864771 0.041472 -0.500450
vn 0.864771 0.041472 -0.500451
vn 0.706170 0.029746 -0.707417
vn -0.864904 -0.052059 -0.499231
vn -0.864904 -0.052059 -0.499231
vn -0.001017 0.041473 0.999139
vn -0.259557 0.029746 0.965270
vn -0.259556 0.029746 0.965270
vn -0.001018 0.041473 0.999139
vn 0.498364 0.058492 0.864993
vn 0.498364 0.058492 0.864993
vn 0.864203 0.064838 0.498948
vn 0.864203 0.064838 0.498948
vn 0.998288 0.058491 -0.000900
vn 0.998288 0.058491 -0.000900
s 1
g Banh_xeo_plate Sprouts Banh_xeo_2
usemtl lambert15SG
f 25/55/37 26/56/38 27/57/39
f 28/62/40 26/56/38 29/61/41
f 29/61/41 26/56/38 30/60/42
f 30/60/42 26/56/38 31/59/43
f 31/59/43 26/56/38 32/58/44
f 32/58/44 26/56/38 25/55/37
s 3
f 17/63/45 19/64/46 18/65/47
f 20/70/48 21/69/49 18/65/47
f 21/69/49 22/68/50 18/65/47
f 22/68/50 23/67/51 18/65/47
f 23/67/51 24/66/52 18/65/47
f 24/66/52 17/63/45 18/65/47
s 5
f 18/40/53 19/43/54 27/44/55 26/41/56
s 6
f 19/53/57 17/51/58 25/52/59 27/54/60
s 5
f 20/39/61 18/40/53 26/41/56 28/42/62
s 6
f 21/71/63 20/72/64 28/73/65 29/74/66
f 22/75/67 21/71/63 29/74/66 30/76/68
f 23/46/69 22/49/67 30/50/68 31/47/70
f 24/45/71 23/46/69 31/47/70 32/48/72
f 17/51/58 24/45/71 32/48/72 25/52/59
g default
v -0.724794 -0.348627 -1.539323
v -1.540399 -0.380714 -1.067821
v -1.069626 -0.359439 -1.884201
v -2.012018 -0.359439 -0.251929
v -1.540929 -0.348627 -0.125734
v -1.069812 -0.340713 -0.252036
v -0.724901 -0.337816 -0.596993
v -0.598616 -0.340713 -1.068172
v -0.719165 -0.509313 -1.538884
v -1.536552 -0.541414 -1.065600
v -1.064373 -0.520139 -1.884414
v -2.009577 -0.520139 -0.247274
v -1.537735 -0.509313 -0.121079
v -1.065212 -0.501374 -0.247758
v -0.719273 -0.498469 -0.593743
v -0.592610 -0.501374 -1.066328
vt 0.928765 0.002844
vt 0.922316 0.250183
vt 0.873596 0.250069
vt 0.880045 0.001992
vt 0.928765 0.497522
vt 0.880045 0.498146
vt 0.955618 0.749931
vt 0.955618 0.892732
vt 0.906898 0.893158
vt 0.906898 0.749931
vt 0.955618 0.997270
vt 0.906898 0.998008
vt 0.955618 0.607130
vt 0.906898 0.606703
vt 0.955618 0.502592
vt 0.906898 0.501968
vt 0.393014 0.106728
vt 0.145135 0.250069
vt 0.288362 0.001992
vt 0.431392 0.249955
vt 0.393014 0.393182
vt 0.288164 0.498032
vt 0.144937 0.536410
vt 0.001907 0.498146
vt 0.828919 0.430396
vt 0.724381 0.534934
vt 0.581580 0.287595
vt 0.867182 0.287595
vt 0.828919 0.144793
vt 0.724381 0.040256
vt 0.581580 0.001992
vt 0.438778 0.040256
vt 0.901023 0.681983
vt 0.901023 0.824785
vt 0.852303 0.825013
vt 0.852303 0.681983
vt 0.901023 0.539182
vt 0.852303 0.538756
vn 0.039366 -0.999225 0.000214
vn 0.032881 -0.999279 0.018984
vn 0.036350 -0.999327 -0.005003
vn 0.013842 -0.999327 0.033981
vn 0.019868 -0.999225 0.033985
vn 0.031122 -0.999036 0.030974
vn 0.039369 -0.998966 0.022730
vn 0.042385 -0.999036 0.011465
vn -0.039414 0.999223 -0.000180
vn -0.036390 0.999325 0.005057
vn -0.032901 0.999278 -0.018995
vn -0.013815 0.999325 -0.034044
vn -0.019863 0.999223 -0.034044
vn -0.031149 0.999033 -0.031018
vn -0.039412 0.998964 -0.022754
vn -0.042437 0.999033 -0.011467
vn -0.865695 -0.027628 -0.499809
vn -0.865642 -0.027629 -0.499901
vn -0.865642 -0.027629 -0.499901
vn -0.865695 -0.027628 -0.499809
vn 0.706733 0.023433 -0.707092
vn 0.865520 0.029268 -0.500018
vn 0.865520 0.029268 -0.500018
vn 0.706733 0.023433 -0.707092
vn -0.865748 -0.027628 -0.499718
vn -0.865748 -0.027628 -0.499718
vn -0.000268 0.029268 0.999572
vn -0.258993 0.023433 0.965595
vn -0.258993 0.023433 0.965595
vn -0.000269 0.029268 0.999572
vn 0.499379 0.037348 0.865578
vn 0.499379 0.037348 0.865578
vn 0.865318 0.040421 0.499591
vn 0.865318 0.040421 0.499591
vn 0.999302 0.037347 -0.000315
vn 0.999302 0.037347 -0.000315
s 1
g Banh_xeo_plate Sprouts Banh_xeo_3
usemtl lambert15SG
f 41/93/73 42/94/74 43/95/75
f 44/100/76 42/94/74 45/99/77
f 45/99/77 42/94/74 46/98/78
f 46/98/78 42/94/74 47/97/79
f 47/97/79 42/94/74 48/96/80
f 48/96/80 42/94/74 41/93/73
s 3
f 33/101/81 35/102/82 34/103/83
f 36/108/84 37/107/85 34/103/83
f 37/107/85 38/106/86 34/103/83
f 38/106/86 39/105/87 34/103/83
f 39/105/87 40/104/88 34/103/83
f 40/104/88 33/101/81 34/103/83
s 5
f 34/78/89 35/81/90 43/82/91 42/79/92
s 6
f 35/91/93 33/89/94 41/90/95 43/92/96
s 5
f 36/77/97 34/78/89 42/79/92 44/80/98
s 6
f 37/109/99 36/110/100 44/111/101 45/112/102
f 38/113/103 37/109/99 45/112/102 46/114/104
f 39/84/105 38/87/103 46/88/104 47/85/106
f 40/83/107 39/84/105 47/85/106 48/86/108
f 33/89/94 40/83/107 48/86/108 41/90/95
