# This file uses centimeters as units for non-parametric coordinates.

mtllib Meat.mtl
g default
v -3.322256 -1.198585 -2.110507
v -3.313408 -1.234629 -2.470088
v -3.558619 -1.215527 -2.735007
v -3.914249 -1.152468 -2.750079
v -3.579980 -1.128507 -1.866902
v -3.313630 -1.151026 -2.115062
v -3.304782 -1.187071 -2.474643
v -3.549993 -1.167969 -2.739562
v -3.905623 -1.104910 -2.754634
v -3.571354 -1.080949 -1.871457
v -3.747114 -1.140488 -2.308491
v -3.738488 -1.092929 -2.313046
vt 0.039231 0.322330
vt 0.166538 0.297923
vt 0.169815 0.315020
vt 0.042509 0.339427
vt 0.293844 0.273516
vt 0.297122 0.290614
vt 0.421151 0.249110
vt 0.424429 0.266207
vt 0.753820 0.185332
vt 0.881126 0.160925
vt 0.884404 0.178023
vt 0.757097 0.202429
vt 0.555596 0.050887
vt 0.682553 0.077056
vt 0.587485 0.217221
vt 0.447320 0.122154
vt 0.730928 0.329385
vt 0.622652 0.400652
vt 0.590763 0.234318
vt 0.495696 0.374483
vn 0.983784 -0.174445 0.041693
vn 0.983784 -0.174445 0.041693
vn 0.983784 -0.174445 0.041693
vn 0.983784 -0.174445 0.041693
vn 0.712949 -0.193859 -0.673886
vn 0.712949 -0.193859 -0.673886
vn 0.712949 -0.193859 -0.673886
vn 0.712949 -0.193859 -0.673886
vn 0.024477 -0.099711 -0.994715
vn 0.024477 -0.099711 -0.994715
vn 0.024477 -0.099711 -0.994715
vn 0.024477 -0.099711 -0.994715
vn 0.678333 -0.052842 0.732852
vn 0.678333 -0.052842 0.732852
vn 0.678333 -0.052842 0.732852
vn 0.678333 -0.052842 0.732852
vn -0.177678 -0.979606 0.093824
vn -0.177678 -0.979606 0.093824
vn -0.177677 -0.979606 0.093824
vn -0.177677 -0.979606 0.093824
vn -0.177677 -0.979606 0.093824
vn -0.177678 -0.979606 0.093824
vn 0.177677 0.979606 -0.093824
vn 0.177678 0.979606 -0.093824
vn 0.177677 0.979606 -0.093824
vn 0.177677 0.979606 -0.093824
vn 0.177677 0.979606 -0.093824
vn 0.177677 0.979606 -0.093824
vn -0.918264 0.199328 0.342141
vn -0.918263 0.199328 0.342141
vn -0.918264 0.199328 0.342141
vn -0.918263 0.199328 0.342141
vn -0.918266 0.199317 0.342142
vn -0.918266 0.199317 0.342142
vn -0.918266 0.199317 0.342142
vn -0.918266 0.199317 0.342142
s off
g Meatslice_2 Pho
usemtl lambert11SG
f 1/1/1 2/2/2 7/3/3 6/4/4
f 2/2/5 3/5/6 8/6/7 7/3/8
f 3/5/9 4/7/10 9/8/11 8/6/12
f 5/9/13 1/10/14 6/11/15 10/12/16
s 1
f 2/13/17 1/14/18 11/15/19
f 3/16/20 2/13/17 11/15/19
f 4/7/21 3/16/20 11/15/19
f 1/14/18 5/9/22 11/15/19
s 2
f 6/17/23 7/18/24 12/19/25
f 7/18/24 8/20/26 12/19/25
f 8/20/26 9/8/27 12/19/25
f 10/12/28 6/17/23 12/19/25
s off
f 4/7/29 11/15/30 12/19/31 9/8/32
f 11/15/33 5/9/34 10/12/35 12/19/36
g default
v -3.482245 -1.221632 -1.819056
v -3.476194 -1.258250 -2.178637
v -3.719212 -1.220357 -2.443556
v -4.068943 -1.130149 -2.458628
v -3.733821 -1.131953 -1.575451
v -3.469990 -1.174878 -1.823611
v -3.463938 -1.211496 -2.183192
v -3.706956 -1.173602 -2.448111
v -4.056687 -1.083395 -2.463183
v -3.721565 -1.085199 -1.580006
v -3.901382 -1.131051 -2.017039
v -3.889126 -1.084297 -2.021595
vt 0.079119 0.852177
vt 0.177887 0.833242
vt 0.180430 0.846507
vt 0.081662 0.865442
vt 0.276656 0.814307
vt 0.279199 0.827571
vt 0.375424 0.795371
vt 0.377967 0.808636
vt 0.633518 0.745891
vt 0.732286 0.726955
vt 0.734829 0.740220
vt 0.636061 0.759155
vt 0.479731 0.641584
vt 0.578227 0.661887
vt 0.504471 0.770631
vt 0.395727 0.696875
vt 0.615758 0.857651
vt 0.531754 0.912942
vt 0.507014 0.783895
vt 0.433258 0.892640
vt 0.633518 0.745891
vt 0.636061 0.759155
vt 0.375424 0.795371
vt 0.377967 0.808636
vt 0.276656 0.814307
vt 0.279199 0.827571
vt 0.177887 0.833242
vt 0.180430 0.846507
vn 0.967467 -0.249539 0.041693
vn 0.967467 -0.249539 0.041693
vn 0.967467 -0.249539 0.041693
vn 0.967467 -0.249539 0.041693
vn 0.695939 -0.248080 -0.673888
vn 0.695939 -0.248080 -0.673888
vn 0.695939 -0.248080 -0.673888
vn 0.695939 -0.248080 -0.673888
vn 0.016740 -0.101297 -0.994715
vn 0.016740 -0.101297 -0.994715
vn 0.016740 -0.101297 -0.994715
vn 0.016740 -0.101297 -0.994715
vn 0.672265 -0.104823 0.732852
vn 0.672265 -0.104823 0.732852
vn 0.672265 -0.104823 0.732852
vn 0.672265 -0.104823 0.732852
vn -0.252447 -0.963051 0.093824
vn -0.252447 -0.963051 0.093824
vn -0.252447 -0.963051 0.093824
vn -0.252447 -0.963051 0.093824
vn -0.252448 -0.963051 0.093824
vn -0.252447 -0.963051 0.093824
vn 0.252447 0.963051 -0.093824
vn 0.252447 0.963051 -0.093824
vn 0.252447 0.963051 -0.093824
vn 0.252447 0.963051 -0.093824
vn 0.252446 0.963051 -0.093824
vn 0.252447 0.963051 -0.093825
vn -0.900229 0.269308 0.342142
vn -0.900229 0.269308 0.342142
vn -0.900229 0.269308 0.342142
vn -0.900229 0.269308 0.342142
vn -0.900229 0.269309 0.342142
vn -0.900229 0.269309 0.342142
vn -0.900229 0.269309 0.342142
vn -0.900229 0.269309 0.342142
s off
g Pho Meatslice_1
usemtl lambert11SG
f 13/21/37 14/22/38 19/48/39 18/24/40
f 14/47/41 15/25/42 20/46/43 19/23/44
f 15/45/45 16/43/46 21/44/47 20/26/48
f 17/41/49 13/30/50 18/31/51 22/42/52
s 1
f 14/33/53 13/34/54 23/35/55
f 15/36/56 14/33/53 23/35/55
f 16/27/57 15/36/56 23/35/55
f 13/34/54 17/29/58 23/35/55
s 2
f 18/37/59 19/38/60 24/39/61
f 19/38/60 20/40/62 24/39/61
f 20/40/62 21/28/63 24/39/61
f 22/32/64 18/37/59 24/39/61
s off
f 16/27/65 23/35/66 24/39/67 21/28/68
f 23/35/69 17/29/70 22/32/71 24/39/72
